<svg width="25" height="25" viewBox="0 0 25 25" fill="none" xmlns="http://www.w3.org/2000/svg">
<g id="ic:baseline-whatsapp">
<path id="Vector" d="M19.8441 5.11456C18.8891 4.1499 17.7516 3.38505 16.4979 2.86462C15.2442 2.34418 13.8994 2.07859 12.542 2.08331C6.85449 2.08331 2.21908 6.71873 2.21908 12.4062C2.21908 14.2291 2.69824 16 3.59408 17.5625L2.13574 22.9166L7.60449 21.4791C9.11491 22.3021 10.8128 22.7396 12.542 22.7396C18.2295 22.7396 22.8649 18.1041 22.8649 12.4166C22.8649 9.65623 21.792 7.06248 19.8441 5.11456ZM12.542 20.9896C11.0003 20.9896 9.48991 20.5729 8.16699 19.7916L7.85449 19.6041L4.60449 20.4583L5.46908 17.2916L5.26074 16.9687C4.40423 15.601 3.94943 14.02 3.94824 12.4062C3.94824 7.67706 7.80241 3.8229 12.5316 3.8229C14.8232 3.8229 16.9795 4.71873 18.5941 6.34373C19.3935 7.13953 20.0271 8.08609 20.458 9.12855C20.889 10.171 21.1087 11.2886 21.1045 12.4166C21.1253 17.1458 17.2712 20.9896 12.542 20.9896ZM17.2503 14.5729C16.9899 14.4479 15.7191 13.8229 15.4899 13.7291C15.2503 13.6458 15.0837 13.6041 14.9066 13.8541C14.7295 14.1146 14.2399 14.6979 14.0941 14.8646C13.9482 15.0416 13.792 15.0625 13.5316 14.9271C13.2712 14.8021 12.4378 14.5208 11.4587 13.6458C10.6878 12.9583 10.1774 12.1146 10.0212 11.8541C9.87532 11.5937 10.0003 11.4583 10.1357 11.3229C10.2503 11.2083 10.3962 11.0208 10.5212 10.875C10.6462 10.7291 10.6982 10.6146 10.7816 10.4479C10.8649 10.2708 10.8232 10.125 10.7607 9.99998C10.6982 9.87498 10.1774 8.60415 9.96907 8.08331C9.76074 7.58331 9.54199 7.64581 9.38574 7.6354H8.88574C8.70866 7.6354 8.43783 7.6979 8.19824 7.95831C7.96908 8.21873 7.30241 8.84373 7.30241 10.1146C7.30241 11.3854 8.22949 12.6146 8.35449 12.7812C8.47949 12.9583 10.1774 15.5625 12.7607 16.6771C13.3753 16.9479 13.8545 17.1041 14.2295 17.2187C14.8441 17.4166 15.4066 17.3854 15.8545 17.3229C16.3545 17.25 17.3857 16.6979 17.5941 16.0937C17.8128 15.4896 17.8128 14.9791 17.7399 14.8646C17.667 14.75 17.5107 14.6979 17.2503 14.5729Z" fill="white"/>
</g>
</svg>
